HIERARCHY
ROOT Hips
{
  OFFSET -187.679 86.5976 -156.378
  CHANNELS 6 Xposition Yposition Zposition Zrotation Xrotation Yrotation
  JOINT LeftUpLeg
  {
    OFFSET 8.64259 1.95398 -2.38835
    CHANNELS 3 Zrotation Xrotation Yrotation
    JOINT LeftLeg
    {
      OFFSET 43.7702 0 0
      CHANNELS 3 Zrotation Xrotation Yrotation
      JOINT LeftFoot
      {
        OFFSET 40.6238 0 0
        CHANNELS 3 Zrotation Xrotation Yrotation
        JOINT LeftToeBase
        {
          OFFSET 12.7242 0 0
          CHANNELS 3 Zrotation Xrotation Yrotation
          End Site
          {
            OFFSET 0 0 0
          }
        }
      }
    }
  }
  JOINT RightUpLeg
  {
    OFFSET -8.2249 1.95398 -2.59336
    CHANNELS 3 Zrotation Xrotation Yrotation
    JOINT RightLeg
    {
      OFFSET 43.5653 0 0
      CHANNELS 3 Zrotation Xrotation Yrotation
      JOINT RightFoot
      {
        OFFSET 40.6238 0 0
        CHANNELS 3 Zrotation Xrotation Yrotation
        JOINT RightToeBase
        {
          OFFSET 12.7242 0 0
          CHANNELS 3 Zrotation Xrotation Yrotation
          End Site
          {
            OFFSET 0 0 0
          }
        }
      }
    }
  }
  JOINT Spine
  {
    OFFSET 0.165834 0.87714 6.61349
    CHANNELS 3 Zrotation Xrotation Yrotation
    JOINT Spine1
    {
      OFFSET 7.38963 1.71661e-005 0
      CHANNELS 3 Zrotation Xrotation Yrotation
      JOINT Spine2
      {
        OFFSET 11.9445 1.14441e-005 0
        CHANNELS 3 Zrotation Xrotation Yrotation
        JOINT Spine3
        {
          OFFSET 14.7254 4.19617e-005 0
          CHANNELS 3 Zrotation Xrotation Yrotation
          JOINT Spine4
          {
            OFFSET 10.9679 0 0
            CHANNELS 3 Zrotation Xrotation Yrotation
            JOINT RightShoulder
            {
              OFFSET 2.46616 -1.6653 3.69651
              CHANNELS 3 Zrotation Xrotation Yrotation
              JOINT RightArm
              {
                OFFSET 13.0012 0 0
                CHANNELS 3 Zrotation Xrotation Yrotation
                JOINT RightForeArm
                {
                  OFFSET 28.7848 1.52588e-005 0
                  CHANNELS 3 Zrotation Xrotation Yrotation
                  JOINT RightHand
                  {
                    OFFSET 26.5688 1.52588e-005 0
                    CHANNELS 3 Zrotation Xrotation Yrotation
                    End Site
                    {
                      OFFSET 0 0 0
                    }
                  }
                }
              }
            }
            JOINT LeftShoulder
            {
              OFFSET 2.38034 -1.29275 -3.7523
              CHANNELS 3 Zrotation Xrotation Yrotation
              JOINT LeftArm
              {
                OFFSET 16.3182 6.10352e-005 0
                CHANNELS 3 Zrotation Xrotation Yrotation
                JOINT LeftForeArm
                {
                  OFFSET 27.0901 0 0
                  CHANNELS 3 Zrotation Xrotation Yrotation
                  JOINT LeftHand
                  {
                    OFFSET 24.5451 1.52588e-005 0
                    CHANNELS 3 Zrotation Xrotation Yrotation
                    End Site
                    {
                      OFFSET 0 0 0
                    }
                  }
                }
              }
            }
            JOINT Neck
            {
              OFFSET 5.0226 -0.0266342 0
              CHANNELS 3 Zrotation Xrotation Yrotation
              JOINT Head
              {
                OFFSET 6.69363 2.86102e-005 0
                CHANNELS 3 Zrotation Xrotation Yrotation
                End Site
                {
                  OFFSET 0 0 0
                }
              }
            }
          }
        }
      }
    }
  }
}
MOTION
Frames:	18
Frame Time:	0.0416667
-101.839 91.4655 72.1479 -92.3669 -50.1172 -79.3046 -141.516 -45.6216 179.713 -7.70386 24.5209 2.47932 65.95 -45.2729 80.5666 149.903 3.26393 -46.9503 175.858 32.6416 106.327 -45.5933 5.46118 5.79152 66.3007 -1.92952 -0.359256 24.5891 -2.03833 4.23637 -1.31241 7.84931 -91.8362 11.1134 -3.46448 -3.32026 -0.55679 -3.60717 -3.16463 -23.0771 -2.30742 -4.20698 -3.06443 -2.30741 -4.20698 85.6953 -51.9018 -106.581 20.5972 -11.9471 -0.339333 -13.0472 -10.6034 -1.59822 -6.57511 0.08647 -7.0642 -92.6595 -47.2198 74.2609 -30.9946 -20.7535 -17.0137 23.8833 0.548472 -80.298 4.96863 0.444033 4.14571 7.9694 1.15003 -11.7436 5.75063 3.68268 1.74302 
-101.188 89.3332 78.094 -95.9348 -48.989 -84.4267 -133.256 -46.8116 -176.35 -3.21346 53.2745 0.576694 7.79618 -66.3494 28.8991 150.029 2.84691 -47.348 175.025 34.1155 101.907 -57.5641 1.07498 4.87339 70.4375 -1.72834 -1.61373 22.3498 -2.66068 4.73159 -0.753789 8.01359 -91.4628 10.8136 -2.17611 -2.70665 -0.858186 -2.29308 -2.60831 -23.3768 -1.26255 -3.23505 -3.36412 -1.26255 -3.23505 84.8622 -51.7605 -107.853 21.6778 -13.2452 -2.79897 -12.9184 -9.38155 -2.00473 -6.54126 0.0831978 -7.02871 -93.2559 -47.9566 73.5616 -25.6137 0.42647 -10.7134 13.6604 -3.76357 -45.1385 -1.19105 -0.0367394 0.659729 11.53 1.89623 -4.95406 5.56187 3.14557 1.74504 
-99.0079 89.1757 82.1854 -97.0712 -49.3143 -86.7036 -148.395 -40.7776 170.869 -41.7389 74.1524 14.8854 -10.2253 -55.385 -6.69448 149.815 3.4898 -46.7395 176.008 33.8501 96.8158 -60.3517 -0.191757 4.69404 71.3082 -0.679111 -0.670982 22.4834 -2.63228 4.72942 -0.125525 8.12068 -91.1456 10.6201 -0.777073 -2.20912 -1.05241 -0.873503 -2.17281 -23.5728 -0.0774001 -2.34045 -3.56014 -0.077391 -2.34046 86.2875 -48.6644 -106.663 23.1779 -14.04 -8.74227 -12.8483 -8.04695 -1.9573 -10.8934 0.0206931 -5.37479 -92.4631 -47.4101 74.614 -21.9469 5.76439 -12.4556 20.3378 11.9779 -25.5112 3.50617 0.211399 1.52701 12.5075 2.38766 1.5178 5.65919 2.15547 2.65644 
-99.9275 92.5015 87.182 -99.3339 -49.7472 -94.0211 -145.916 -41.3083 169.003 -24.4716 64.4266 6.23331 -10.1497 -47.5179 -12.9433 148.783 3.39933 -46.9723 178.479 27.0034 88.4788 -55.6464 -1.46201 3.05111 69.9114 1.21767 0.205998 25.2272 -2.6572 6.55444 0.366685 8.19246 -90.4116 10.4959 0.541576 -0.860554 -1.17517 0.503172 -0.883551 -23.7101 0.775178 -0.658007 -3.69745 0.775184 -0.658004 88.7614 -45.7809 -103.637 24.9063 -10.0992 -13.1922 -14.5655 -7.21404 -3.67944 -12.5788 -0.104442 -4.23664 -91.3792 -47.5103 76.2953 -22.8962 -1.73264 -3.63974 17.9647 7.80772 -23.6332 3.16084 0.319379 4.19519 6.06421 1.96474 4.76633 6.74681 1.31298 4.02208 
-104.827 98.3793 92.795 -101.825 -46.9113 -101.671 -135.33 -49.106 169.437 -1.05273 51.9655 0.143876 -20.4936 -52.1104 -20.7536 150.319 4.00754 -46.1543 -179.878 19.3283 84.4827 -49.9531 -2.8817 -1.53178 60.3897 6.64856 2.02292 22.6792 -3.34515 6.8777 0.929146 8.28245 -89.442 10.3053 2.10639 0.925854 -1.36418 2.14508 0.832214 -23.907 1.73076 1.51619 -3.89437 1.73074 1.5162 90.1298 -44.1795 -101.855 27.9375 -8.46612 -13.6751 -16.0504 -7.68952 -9.67189 -15.5368 -0.275207 -2.9882 -90.0944 -45.6555 77.8282 -20.9456 1.78484 5.14904 17.6373 7.39445 -25.5527 3.28974 0.444443 6.43586 -2.51493 0.982615 3.90042 6.81192 0.728014 2.53877 
-109.823 102.049 97.5717 -99.2705 -41.8644 -102.095 -133.611 -53.8589 162.558 -1.25192 53.5439 0.13032 -26.462 -61.8483 -28.519 152.445 4.70622 -45.216 179.031 20.9635 83.5395 -53.1792 -1.71036 -1.2455 58.4662 6.12873 2.78736 20.6844 -3.06187 4.88335 1.48504 8.28017 -88.871 10.2824 3.47475 1.94346 -1.38516 3.55691 1.78852 -23.9338 2.73021 2.89804 -3.9212 2.73023 2.89804 89.9107 -42.9965 -102.535 28.0881 -11.6036 -14.7102 -16.5325 -10.4848 -14.7702 -14.253 -0.0642164 -4.59214 -88.8683 -40.7386 78.6284 -25.0718 13.4538 12.8945 15.8898 3.00296 -28.3462 1.15362 0.203971 5.23622 -4.059 1.54955 4.09684 7.1357 1.25645 1.78531 
-114.16 103.028 102.104 -96.7163 -38.4725 -99.1892 -129.944 -55.4371 160.872 -1.84357 55.4915 0.142715 -34.8275 -73.1919 -37.6114 154.508 5.42788 -44.3187 176.376 23.7475 85.3242 -53.0394 -1.55309 3.52476 56.1493 3.99602 4.35518 25.6672 -1.45917 3.11272 1.58522 8.21733 -88.9845 10.4122 3.62322 1.69938 -1.25464 3.69448 1.53811 -23.8099 2.94506 2.71013 -3.79722 2.94508 2.71014 88.7187 -43.6332 -104.324 23.8793 -14.6753 -17.9672 -15.3059 -10.117 -12.6387 -15.8671 -0.0693263 -4.61531 -88.9499 -43.0611 79.042 -27.933 19.5698 20.5076 14.3525 -0.339254 -30.6548 -0.208116 0.0157019 1.4505 -3.05468 2.65813 8.09234 8.33245 1.91123 2.12404 
-118.823 101.922 106.979 -96.8308 -35.4834 -98.6818 -126.029 -60.6607 160.986 -2.76455 50.5802 0.0497491 -113.442 -87.5482 -114.426 155.502 6.26374 -43.4605 176.865 23.777 89.133 -51.2166 -3.08103 1.114 57.7013 3.36049 3.41789 23.577 -1.80026 2.88957 1.49595 8.28454 -89.082 10.2821 3.39996 1.53072 -1.38513 3.46401 1.37946 -23.9389 2.78279 2.48214 -3.92621 2.78279 2.48214 88.8827 -44.2452 -103.876 22.3207 -16.1896 -20.2502 -14.3535 -8.85681 -10.9908 -16.55 -0.224554 -3.48367 -87.8283 -42.7457 80.7932 -34.1241 16.2448 26.0459 15.4852 1.01424 -32.0853 -3.84793 -0.163185 2.00706 -2.34157 4.28686 10.0961 8.11838 3.22799 2.1979 
-123.341 98.4373 112.216 -96.2125 -32.4907 -98.7858 -124.628 -67.9255 158.433 -4.21348 38.4681 -0.159093 153.444 -69.7723 154.156 155.893 7.26786 -42.5133 175.625 24.5898 88.9901 -51.6116 0.0460964 2.16749 55.6484 2.18033 -0.632569 25.1977 -3.31517 8.61026 1.38998 8.28949 -89.1353 10.2747 3.16457 1.44559 -1.39303 3.2251 1.30481 -23.944 2.58383 2.33012 -3.93134 2.58384 2.33013 87.8147 -44.7917 -105.447 21.9257 -15.617 -19.0923 -14.9478 -8.26552 -12.8838 -14.4356 -0.0564357 -4.67479 -87.6191 -42.8548 81.1558 -39.6628 14.4629 28.1085 13.1879 -1.78049 -28.9274 -5.70117 -0.243247 1.04612 -2.02775 5.78645 12.5632 8.89344 4.27704 1.07029 
-127.247 92.41 117.425 -96.4911 -29.2626 -99.5572 -120.71 -75.6593 158.152 -6.16691 35.0805 -0.117484 156.237 -45.3008 157.354 155.944 8.1673 -41.6901 173.762 22.02 88.0138 -61.398 0.583092 0.737391 75.4247 -6.00408 -1.36893 33.0909 -1.63602 9.24101 1.39833 8.39592 -89.2519 10.0658 3.12706 1.22478 -1.60184 3.17792 1.08585 -24.155 2.6144 2.10835 -4.14234 2.61441 2.10834 86.9043 -46.0685 -106.508 20.3896 -15.1501 -17.586 -16.3922 -10.5969 -15.4775 -12.8341 -0.0196094 -4.9721 -88.3871 -45.4853 80.4695 -41.0724 13.6398 27.7314 9.51953 -7.52277 -27.1588 -8.40463 -0.26559 -0.794417 -0.728032 6.98613 14.5505 11.494 5.12619 1.64566 
-131.621 88.0111 122.39 -95.9313 -30.2031 -95.7017 -110.673 -72.3385 167.868 -7.33561 35.5672 0.267472 156.73 -32.1858 157.687 155.829 8.24008 -41.6303 172.758 19.1167 89.4354 -67.5971 3.63731 2.15906 87.5348 -8.66274 1.6266 35.7662 -0.868605 8.66129 1.19583 8.32877 -89.8429 10.2134 2.45437 0.103165 -1.45524 2.45655 -0.00502884 -24.0071 2.30984 0.836431 -3.9945 2.30983 0.83643 85.1179 -48.756 -108.427 19.616 -13.6729 -14.769 -16.7332 -12.3957 -13.9955 -12.9261 -0.309793 -2.27388 -89.7788 -52.4854 79.8027 -34.6219 15.0819 19.8663 6.08859 -15.837 -16.0394 -6.48529 -0.211625 -0.761421 4.13055 8.60023 15.9906 9.1291 5.83479 2.06346 
-136.556 85.5411 127.117 -94.9331 -34.1508 -95.4372 -114.705 -72.3157 166.051 -6.9758 54.6108 0.221138 165.31 -47.5486 162.344 156.488 6.88715 -42.808 172.524 21.7951 87.7121 -77.6539 3.63797 3.55732 81.6269 -6.02581 -1.06218 44.87 0.832677 11.4806 0.824635 7.96652 -89.5714 10.9361 1.83978 0.667818 -0.733734 1.8674 0.586165 -23.2751 1.55402 1.18995 -3.26251 1.55401 1.18994 85.0762 -49.8856 -108.126 27.2192 -14.67 -9.09042 -13.2265 -7.61995 -4.06367 -10.901 0.0113794 -5.41656 -90.1266 -50.4074 78.858 -32.9429 14.3488 10.1196 7.42157 -29.3582 -1.16122 -1.13123 0.0270917 3.10531 4.70896 7.27045 7.76587 8.05693 6.00553 2.70395 
-140.833 83.6733 130.841 -96.1945 -38.5353 -97.7306 -116.195 -73.7722 167.534 -5.85679 72.0254 0.302548 -170.579 -73.5369 178.784 155.71 4.89045 -44.6926 174.236 31.8738 83.8774 -92.9828 -2.10522 1.94811 60.1573 -0.727914 -0.506051 35.2844 -1.53251 11.1058 0.258801 7.85152 -88.999 11.1612 0.980338 1.90163 -0.510678 1.06307 1.85666 -23.0355 0.363622 2.10825 -3.02289 0.363637 2.10825 85.2698 -49.5242 -107.949 37.3601 -11.8861 -1.14202 -13.6908 -5.21066 -2.34837 -7.78712 0.103788 -6.97339 -90.7847 -48.2163 77.3667 -28.153 18.9907 2.63017 7.19161 -32.7531 -0.0323316 -1.25155 -0.00909702 2.9685 9.40355 3.82528 -3.76582 4.84558 4.46136 -1.67205 
-143.827 82.379 133.783 -98.7514 -38.6079 -98.7519 -106.696 -77.7198 176.171 -4.65803 64.0882 0.414636 -45.2151 -81.0583 -58.9838 155.123 4.7807 -44.8537 179.616 50.1855 81.7522 -106.411 -9.86654 -2.54298 35.959 5.17493 4.0139 22.6948 -3.25839 6.63719 0.0296863 8.0435 -88.8679 10.776 0.581401 2.19741 -0.896656 0.677542 2.16971 -23.4169 -0.105694 2.27053 -3.40424 -0.105704 2.27053 86.7017 -48.4026 -106.109 40.4728 -11.7654 3.77179 -14.2956 -7.10364 -6.33986 -6.17956 0.116053 -7.84324 -91.58 -47.2814 75.9289 -20.1321 19.0057 -7.30563 6.53895 -19.2664 -9.05393 -3.01639 -0.108036 -0.401301 12.3885 0.656358 -13.2949 7.16349 3.53734 -4.22763 
-147.245 83.7861 136.861 -97.0713 -36.1493 -94.8962 -111.05 -78.5611 167.878 -5.13588 55.5732 0.497963 -26.2408 -74.8685 -39.8936 154.887 4.64436 -45.0044 -171.359 68.8581 79.0729 -104.94 -6.33941 -4.31884 21.5175 3.3163 5.93138 22.4391 -3.4087 6.88926 -0.133943 8.08883 -89.2429 10.6981 0.0822438 1.49868 -0.973654 0.148129 1.49359 -23.5027 -0.371949 1.45412 -3.49002 -0.371944 1.45413 87.1169 -48.5365 -105.429 35.2734 -9.04921 3.52932 -16.9823 -11.5549 -12.2345 -9.74231 -0.0395682 -4.97019 -89.8974 -44.5027 77.8599 -19.3126 9.83158 -18.0462 10.1264 -8.18607 -15.3722 -0.706317 -0.021737 0.160279 14.1466 -0.484326 -18.5963 7.27017 3.77078 -7.07165 
-151.387 88.2693 140.407 -98.3389 -34.5247 -90.1019 -107.533 -73.4548 168.945 -7.43477 55.0951 1.28606 -23.7354 -72.3173 -37.5387 154.57 4.3319 -45.3268 -177.861 72.6889 89.1497 -88.909 3.05123 -3.52011 16.7124 -3.46203 -1.02032 20.9336 -3.60526 6.48381 -0.36089 8.31924 -90.063 10.2357 -0.748001 -0.069329 -1.43503 -0.750326 -0.0363494 -23.9716 -0.692576 -0.290939 -3.95892 -0.692573 -0.290942 87.013 -48.2414 -105.676 30.4533 -7.43209 -0.246038 -16.7018 -7.65447 -10.5095 -15.1918 -0.430924 -1.65735 -89.5773 -42.9032 77.9933 -21.3403 -0.396899 -24.1602 11.4572 -7.39636 -19.0322 3.06234 0.0720012 -0.587308 7.88647 1.21206 -21.434 9.07875 4.72118 -8.90962 
-155.695 93.0434 144.57 -99.9395 -37.9192 -87.1802 -109.159 -67.9686 169.403 -11.567 58.3086 4.47887 -21.4149 -69.4781 -36.7473 153.425 3.94005 -45.8295 176.759 67.1237 92.9676 -69.6276 9.7654 -1.32687 19.5489 -9.00683 -5.59477 23.1693 -2.7122 5.3705 -0.874827 8.53986 -90.7704 9.78156 -2.09275 -1.36226 -1.88833 -2.15066 -1.26883 -24.4264 -1.58665 -1.92821 -4.41376 -1.58666 -1.92822 86.5629 -48.0235 -106.439 27.2886 -9.61451 -3.14889 -15.7621 -5.11179 -10.7721 -14.5646 -0.259599 -3.0271 -88.7625 -39.8246 78.5825 -21.5897 -2.31685 -29.0511 9.67149 -10.4073 -22.1726 4.72702 -0.00379399 -2.89803 -0.25636 2.91986 -26.0597 9.86583 5.75751 -6.31887 
-159.266 95.6259 148.376 -97.4933 -44.6454 -84.7612 -118.074 -62.6329 165.838 -13.2063 59.8838 6.38909 -18.9581 -70.3553 -33.7216 152.782 3.86258 -45.9823 -178.203 61.4564 84.327 -48.3111 4.45908 -0.304664 15.0637 -4.29238 0.449168 22.8666 -3.03261 6.10253 -1.35467 8.41959 -91.3129 9.99696 -3.29662 -2.33457 -1.67166 -3.39617 -2.18719 -24.2106 -2.44297 -3.21719 -4.19793 -2.44294 -3.2172 88.3438 -46.801 -104.015 25.9628 -10.7439 -3.83174 -17.167 -8.43959 -17.1006 -12.3058 -0.0702202 -4.48054 -88.7516 -37.1297 77.9241 -22.3845 -3.32528 -35.8582 10.6494 -7.50553 -26.0346 5.29178 -0.0950418 -4.31115 -4.639 2.01425 -28.7903 11.7288 4.47759 -2.95157 
